<svg id="visual" viewBox="0 0 1300 300" width="1300" height="300" xmlns="http://www.w3.org/2000/svg" xmlns:xlink="http://www.w3.org/1999/xlink" version="1.1"><rect x="0" y="0" width="1300" height="300" fill="#2d2d2d"></rect><path d="M0 152L27.2 147.2C54.3 142.3 108.7 132.7 162.8 128C217 123.3 271 123.7 325.2 125.7C379.3 127.7 433.7 131.3 487.8 135.8C542 140.3 596 145.7 650.2 152.5C704.3 159.3 758.7 167.7 812.8 169.7C867 171.7 921 167.3 975.2 163.2C1029.3 159 1083.7 155 1137.8 156C1192 157 1246 163 1273 166L1300 169L1300 0L1273 0C1246 0 1192 0 1137.8 0C1083.7 0 1029.3 0 975.2 0C921 0 867 0 812.8 0C758.7 0 704.3 0 650.2 0C596 0 542 0 487.8 0C433.7 0 379.3 0 325.2 0C271 0 217 0 162.8 0C108.7 0 54.3 0 27.2 0L0 0Z" fill="#ff6f64"></path><path d="M0 115L27.2 115.7C54.3 116.3 108.7 117.7 162.8 115.2C217 112.7 271 106.3 325.2 106.2C379.3 106 433.7 112 487.8 118.8C542 125.7 596 133.3 650.2 133.8C704.3 134.3 758.7 127.7 812.8 120.5C867 113.3 921 105.7 975.2 104.2C1029.3 102.7 1083.7 107.3 1137.8 116C1192 124.7 1246 137.3 1273 143.7L1300 150L1300 0L1273 0C1246 0 1192 0 1137.8 0C1083.7 0 1029.3 0 975.2 0C921 0 867 0 812.8 0C758.7 0 704.3 0 650.2 0C596 0 542 0 487.8 0C433.7 0 379.3 0 325.2 0C271 0 217 0 162.8 0C108.7 0 54.3 0 27.2 0L0 0Z" fill="#f15e53"></path><path d="M0 107L27.2 102.2C54.3 97.3 108.7 87.7 162.8 87C217 86.3 271 94.7 325.2 93.8C379.3 93 433.7 83 487.8 80C542 77 596 81 650.2 80C704.3 79 758.7 73 812.8 77.2C867 81.3 921 95.7 975.2 99.2C1029.3 102.7 1083.7 95.3 1137.8 93.3C1192 91.3 1246 94.7 1273 96.3L1300 98L1300 0L1273 0C1246 0 1192 0 1137.8 0C1083.7 0 1029.3 0 975.2 0C921 0 867 0 812.8 0C758.7 0 704.3 0 650.2 0C596 0 542 0 487.8 0C433.7 0 379.3 0 325.2 0C271 0 217 0 162.8 0C108.7 0 54.3 0 27.2 0L0 0Z" fill="#e34c43"></path><path d="M0 86L27.2 79.8C54.3 73.7 108.7 61.3 162.8 57C217 52.7 271 56.3 325.2 61.2C379.3 66 433.7 72 487.8 72C542 72 596 66 650.2 64.2C704.3 62.3 758.7 64.7 812.8 65.2C867 65.7 921 64.3 975.2 64.7C1029.3 65 1083.7 67 1137.8 68.7C1192 70.3 1246 71.7 1273 72.3L1300 73L1300 0L1273 0C1246 0 1192 0 1137.8 0C1083.7 0 1029.3 0 975.2 0C921 0 867 0 812.8 0C758.7 0 704.3 0 650.2 0C596 0 542 0 487.8 0C433.7 0 379.3 0 325.2 0C271 0 217 0 162.8 0C108.7 0 54.3 0 27.2 0L0 0Z" fill="#d53a33"></path><path d="M0 31L27.2 31.7C54.3 32.3 108.7 33.7 162.8 32.7C217 31.7 271 28.3 325.2 29.2C379.3 30 433.7 35 487.8 37C542 39 596 38 650.2 36C704.3 34 758.7 31 812.8 33.3C867 35.7 921 43.3 975.2 46C1029.3 48.7 1083.7 46.3 1137.8 44.7C1192 43 1246 42 1273 41.5L1300 41L1300 0L1273 0C1246 0 1192 0 1137.8 0C1083.7 0 1029.3 0 975.2 0C921 0 867 0 812.8 0C758.7 0 704.3 0 650.2 0C596 0 542 0 487.8 0C433.7 0 379.3 0 325.2 0C271 0 217 0 162.8 0C108.7 0 54.3 0 27.2 0L0 0Z" fill="#c72424"></path></svg>