<svg id="visual" viewBox="0 0 1300 300" width="1300" height="300" xmlns="http://www.w3.org/2000/svg" xmlns:xlink="http://www.w3.org/1999/xlink" version="1.1"><rect x="0" y="0" width="1300" height="300" fill="#ff958e"></rect><path d="M0 176L27.2 177.2C54.3 178.3 108.7 180.7 162.8 175.2C217 169.7 271 156.3 325.2 155C379.3 153.7 433.7 164.3 487.8 169.8C542 175.3 596 175.7 650.2 171.8C704.3 168 758.7 160 812.8 156.2C867 152.3 921 152.7 975.2 154C1029.3 155.3 1083.7 157.7 1137.8 154.8C1192 152 1246 144 1273 140L1300 136L1300 0L1273 0C1246 0 1192 0 1137.8 0C1083.7 0 1029.3 0 975.2 0C921 0 867 0 812.8 0C758.7 0 704.3 0 650.2 0C596 0 542 0 487.8 0C433.7 0 379.3 0 325.2 0C271 0 217 0 162.8 0C108.7 0 54.3 0 27.2 0L0 0Z" fill="#ff6f64"></path><path d="M0 95L27.2 99.7C54.3 104.3 108.7 113.7 162.8 122.5C217 131.3 271 139.7 325.2 138.3C379.3 137 433.7 126 487.8 117.5C542 109 596 103 650.2 103.2C704.3 103.3 758.7 109.7 812.8 112.3C867 115 921 114 975.2 115.8C1029.3 117.7 1083.7 122.3 1137.8 127.5C1192 132.7 1246 138.3 1273 141.2L1300 144L1300 0L1273 0C1246 0 1192 0 1137.8 0C1083.7 0 1029.3 0 975.2 0C921 0 867 0 812.8 0C758.7 0 704.3 0 650.2 0C596 0 542 0 487.8 0C433.7 0 379.3 0 325.2 0C271 0 217 0 162.8 0C108.7 0 54.3 0 27.2 0L0 0Z" fill="#f15e53"></path><path d="M0 84L27.2 82C54.3 80 108.7 76 162.8 76.3C217 76.7 271 81.3 325.2 83C379.3 84.7 433.7 83.3 487.8 82.5C542 81.7 596 81.3 650.2 84.5C704.3 87.7 758.7 94.3 812.8 99.3C867 104.3 921 107.7 975.2 108C1029.3 108.3 1083.7 105.7 1137.8 103.3C1192 101 1246 99 1273 98L1300 97L1300 0L1273 0C1246 0 1192 0 1137.8 0C1083.7 0 1029.3 0 975.2 0C921 0 867 0 812.8 0C758.7 0 704.3 0 650.2 0C596 0 542 0 487.8 0C433.7 0 379.3 0 325.2 0C271 0 217 0 162.8 0C108.7 0 54.3 0 27.2 0L0 0Z" fill="#e34c43"></path><path d="M0 65L27.2 64.7C54.3 64.3 108.7 63.7 162.8 61.8C217 60 271 57 325.2 58.7C379.3 60.3 433.7 66.7 487.8 71.3C542 76 596 79 650.2 77.3C704.3 75.7 758.7 69.3 812.8 70C867 70.7 921 78.3 975.2 82.2C1029.3 86 1083.7 86 1137.8 84.7C1192 83.3 1246 80.7 1273 79.3L1300 78L1300 0L1273 0C1246 0 1192 0 1137.8 0C1083.7 0 1029.3 0 975.2 0C921 0 867 0 812.8 0C758.7 0 704.3 0 650.2 0C596 0 542 0 487.8 0C433.7 0 379.3 0 325.2 0C271 0 217 0 162.8 0C108.7 0 54.3 0 27.2 0L0 0Z" fill="#d53a33"></path><path d="M0 48L27.2 46.7C54.3 45.3 108.7 42.7 162.8 39.7C217 36.7 271 33.3 325.2 33.2C379.3 33 433.7 36 487.8 37.8C542 39.7 596 40.3 650.2 38.2C704.3 36 758.7 31 812.8 29.8C867 28.7 921 31.3 975.2 33.8C1029.3 36.3 1083.7 38.7 1137.8 37.7C1192 36.7 1246 32.3 1273 30.2L1300 28L1300 0L1273 0C1246 0 1192 0 1137.8 0C1083.7 0 1029.3 0 975.2 0C921 0 867 0 812.8 0C758.7 0 704.3 0 650.2 0C596 0 542 0 487.8 0C433.7 0 379.3 0 325.2 0C271 0 217 0 162.8 0C108.7 0 54.3 0 27.2 0L0 0Z" fill="#c72424"></path></svg>