<svg id="visual" viewBox="0 0 900 300" width="900" height="300" xmlns="http://www.w3.org/2000/svg" xmlns:xlink="http://www.w3.org/1999/xlink" version="1.1"><rect x="0" y="0" width="900" height="300" fill="#202731"></rect><path d="M0 121L21.5 116.7C43 112.3 86 103.7 128.8 103.7C171.7 103.7 214.3 112.3 257.2 110.8C300 109.3 343 97.7 385.8 94.8C428.7 92 471.3 98 514.2 103.3C557 108.7 600 113.3 642.8 111.3C685.7 109.3 728.3 100.7 771.2 96.7C814 92.7 857 93.3 878.5 93.7L900 94L900 0L878.5 0C857 0 814 0 771.2 0C728.3 0 685.7 0 642.8 0C600 0 557 0 514.2 0C471.3 0 428.7 0 385.8 0C343 0 300 0 257.2 0C214.3 0 171.7 0 128.8 0C86 0 43 0 21.5 0L0 0Z" fill="#ff6f64"></path><path d="M0 88L21.5 87C43 86 86 84 128.8 80C171.7 76 214.3 70 257.2 71.7C300 73.3 343 82.7 385.8 86.2C428.7 89.7 471.3 87.3 514.2 83.8C557 80.3 600 75.7 642.8 74.3C685.7 73 728.3 75 771.2 79.3C814 83.7 857 90.3 878.5 93.7L900 97L900 0L878.5 0C857 0 814 0 771.2 0C728.3 0 685.7 0 642.8 0C600 0 557 0 514.2 0C471.3 0 428.7 0 385.8 0C343 0 300 0 257.2 0C214.3 0 171.7 0 128.8 0C86 0 43 0 21.5 0L0 0Z" fill="#f15e53"></path><path d="M0 45L21.5 44.8C43 44.7 86 44.3 128.8 45.7C171.7 47 214.3 50 257.2 55C300 60 343 67 385.8 66C428.7 65 471.3 56 514.2 54.5C557 53 600 59 642.8 59.8C685.7 60.7 728.3 56.3 771.2 53.7C814 51 857 50 878.5 49.5L900 49L900 0L878.5 0C857 0 814 0 771.2 0C728.3 0 685.7 0 642.8 0C600 0 557 0 514.2 0C471.3 0 428.7 0 385.8 0C343 0 300 0 257.2 0C214.3 0 171.7 0 128.8 0C86 0 43 0 21.5 0L0 0Z" fill="#e34c43"></path><path d="M0 29L21.5 29.8C43 30.7 86 32.3 128.8 34.2C171.7 36 214.3 38 257.2 42C300 46 343 52 385.8 50.7C428.7 49.3 471.3 40.7 514.2 35.5C557 30.3 600 28.7 642.8 30.3C685.7 32 728.3 37 771.2 40.5C814 44 857 46 878.5 47L900 48L900 0L878.5 0C857 0 814 0 771.2 0C728.3 0 685.7 0 642.8 0C600 0 557 0 514.2 0C471.3 0 428.7 0 385.8 0C343 0 300 0 257.2 0C214.3 0 171.7 0 128.8 0C86 0 43 0 21.5 0L0 0Z" fill="#d53a33"></path><path d="M0 36L21.5 34C43 32 86 28 128.8 24.8C171.7 21.7 214.3 19.3 257.2 20.2C300 21 343 25 385.8 25C428.7 25 471.3 21 514.2 22.2C557 23.3 600 29.7 642.8 31.7C685.7 33.7 728.3 31.3 771.2 28.7C814 26 857 23 878.5 21.5L900 20L900 0L878.5 0C857 0 814 0 771.2 0C728.3 0 685.7 0 642.8 0C600 0 557 0 514.2 0C471.3 0 428.7 0 385.8 0C343 0 300 0 257.2 0C214.3 0 171.7 0 128.8 0C86 0 43 0 21.5 0L0 0Z" fill="#c72424"></path></svg>