<svg id="visual" viewBox="0 0 900 300" width="900" height="300" xmlns="http://www.w3.org/2000/svg" xmlns:xlink="http://www.w3.org/1999/xlink" version="1.1"><rect x="0" y="0" width="900" height="300" fill="#2d2d2d"></rect><path d="M0 152L18.8 147.2C37.7 142.3 75.3 132.7 112.8 128C150.3 123.3 187.7 123.7 225.2 125.7C262.7 127.7 300.3 131.3 337.8 135.8C375.3 140.3 412.7 145.7 450.2 152.5C487.7 159.3 525.3 167.7 562.8 169.7C600.3 171.7 637.7 167.3 675.2 163.2C712.7 159 750.3 155 787.8 156C825.3 157 862.7 163 881.3 166L900 169L900 0L881.3 0C862.7 0 825.3 0 787.8 0C750.3 0 712.7 0 675.2 0C637.7 0 600.3 0 562.8 0C525.3 0 487.7 0 450.2 0C412.7 0 375.3 0 337.8 0C300.3 0 262.7 0 225.2 0C187.7 0 150.3 0 112.8 0C75.3 0 37.7 0 18.8 0L0 0Z" fill="#ff6f64"></path><path d="M0 115L18.8 115.7C37.7 116.3 75.3 117.7 112.8 115.2C150.3 112.7 187.7 106.3 225.2 106.2C262.7 106 300.3 112 337.8 118.8C375.3 125.7 412.7 133.3 450.2 133.8C487.7 134.3 525.3 127.7 562.8 120.5C600.3 113.3 637.7 105.7 675.2 104.2C712.7 102.7 750.3 107.3 787.8 116C825.3 124.7 862.7 137.3 881.3 143.7L900 150L900 0L881.3 0C862.7 0 825.3 0 787.8 0C750.3 0 712.7 0 675.2 0C637.7 0 600.3 0 562.8 0C525.3 0 487.7 0 450.2 0C412.7 0 375.3 0 337.8 0C300.3 0 262.7 0 225.2 0C187.7 0 150.3 0 112.8 0C75.3 0 37.7 0 18.8 0L0 0Z" fill="#f15e53"></path><path d="M0 107L18.8 102.2C37.7 97.3 75.3 87.7 112.8 87C150.3 86.3 187.7 94.7 225.2 93.8C262.7 93 300.3 83 337.8 80C375.3 77 412.7 81 450.2 80C487.7 79 525.3 73 562.8 77.2C600.3 81.3 637.7 95.7 675.2 99.2C712.7 102.7 750.3 95.3 787.8 93.3C825.3 91.3 862.7 94.7 881.3 96.3L900 98L900 0L881.3 0C862.7 0 825.3 0 787.8 0C750.3 0 712.7 0 675.2 0C637.7 0 600.3 0 562.8 0C525.3 0 487.7 0 450.2 0C412.7 0 375.3 0 337.8 0C300.3 0 262.7 0 225.2 0C187.7 0 150.3 0 112.8 0C75.3 0 37.7 0 18.8 0L0 0Z" fill="#e34c43"></path><path d="M0 86L18.8 79.8C37.7 73.7 75.3 61.3 112.8 57C150.3 52.7 187.7 56.3 225.2 61.2C262.7 66 300.3 72 337.8 72C375.3 72 412.7 66 450.2 64.2C487.7 62.3 525.3 64.7 562.8 65.2C600.3 65.7 637.7 64.3 675.2 64.7C712.7 65 750.3 67 787.8 68.7C825.3 70.3 862.7 71.7 881.3 72.3L900 73L900 0L881.3 0C862.7 0 825.3 0 787.8 0C750.3 0 712.7 0 675.2 0C637.7 0 600.3 0 562.8 0C525.3 0 487.7 0 450.2 0C412.7 0 375.3 0 337.8 0C300.3 0 262.7 0 225.2 0C187.7 0 150.3 0 112.8 0C75.3 0 37.7 0 18.8 0L0 0Z" fill="#d53a33"></path><path d="M0 31L18.8 31.7C37.7 32.3 75.3 33.7 112.8 32.7C150.3 31.7 187.7 28.3 225.2 29.2C262.7 30 300.3 35 337.8 37C375.3 39 412.7 38 450.2 36C487.7 34 525.3 31 562.8 33.3C600.3 35.7 637.7 43.3 675.2 46C712.7 48.7 750.3 46.3 787.8 44.7C825.3 43 862.7 42 881.3 41.5L900 41L900 0L881.3 0C862.7 0 825.3 0 787.8 0C750.3 0 712.7 0 675.2 0C637.7 0 600.3 0 562.8 0C525.3 0 487.7 0 450.2 0C412.7 0 375.3 0 337.8 0C300.3 0 262.7 0 225.2 0C187.7 0 150.3 0 112.8 0C75.3 0 37.7 0 18.8 0L0 0Z" fill="#c72424"></path></svg>